<svg xmlns="http://www.w3.org/2000/svg">
   <symbol id="phone" viewBox="0 0 14 15">
      <path d="M13.7455 13.0923C13.4909 13.5935 12.9818 13.8441 12.4727 
               14.0947C11.8364 14.4706 11.3273 14.5959 10.6909 14.5959C9.8 
               14.5959 8.90909 14.22 8.14545 13.9694C7.50909 13.7188 7 13.4682
                6.36364 13.2176C4.58182 12.09 2.54545 10.0853 1.52727 
                8.45643C1.14545 7.82996 0.890909 7.32878 0.636364 
                6.70231C0.381818 5.82525 0 5.07349 0 4.07113C0 
                3.44466 0.127273 2.81819 0.509091 2.19172C0.763636 
                1.69054 1.01818 1.18936 1.52727 0.938771C1.90909 0.938771 
                2.54545 0.813477 2.92727 0.813477C3.05455 0.813477 3.05455 
                0.813477 3.18182 0.813477C3.43636 0.938771 3.56364 1.31465 
                3.69091 1.56524C3.94545 2.19172 4.32727 2.69289 4.58182 
                3.31936C4.83636 3.56995 5.09091 3.82054 5.09091 4.07113C5.09091 
                4.6976 3.30909 5.57466 3.30909 6.07584C3.30909 6.32643 3.56364 
                6.70231 3.69091 6.9529C4.70909 8.70702 5.98182 9.95997 7.76364
                10.9623C8.01818 11.0876 8.4 11.3382 8.65455 11.3382C9.16364
                11.3382 10.0545 9.58408 10.6909 9.58408C10.9455 9.58408 
                11.2 9.83467 11.4545 10.0853C11.9636 10.4611 12.6 10.7117
                13.1091 11.0876C13.3636 11.2129 13.7455 11.3382 13.8727 
                11.5888C13.8727 11.7141 13.8727 11.7141 13.8727 11.8394C14 
                12.09 13.8727 12.7164 13.7455 13.0923Z"/>
   </symbol>
</svg>

<svg xmlns="http://www.w3.org/2000/svg" >
   <symbol id="leaf" viewBox="0 0 39 37">
     <g>
        <path d="M5.68662 22.4709C5.68662 22.9568 5.92954 23.4426 5.92954 
        23.9284C5.92954 25.8718 6.17246 29.0297 6.17246 29.0297H7.38704C7.38704 
        29.0297 7.38704 23.9284 6.65829 21.2563C5.92954 18.3413 5.68662 12.9971 
        7.38704 9.11043L6.17246 8.6246C6.17246 8.6246 4.71495 11.5396 4.71495 
        16.1551C4.71495 19.0701 4.95787 20.2847 5.20078 21.4992C4.22911 20.7705 
        1.55701 18.3413 1.79993 13.24C2.28577 7.41001 7.38704 2.06581 7.38704
         2.06581C7.38704 2.06581 16.375 10.5679 8.35872 20.0417L9.33039 
         20.7705C9.33039 20.7705 12.9742 16.6409 12.9742 12.0254C12.9742 
         7.41001 11.0308 3.52332 7.38704 0.365387C7.38704 0.365387 1.07118 
         6.43834 0.585343 13.7259C0.342425 20.5276 5.4437 22.9568 5.4437 
         22.9568L5.68662 22.4709Z" fill="#C6F7FF"/>
        <path d="M18.3183 16.1551C9.33038 18.8272 9.81622 27.5722 10.0591 
        29.5156C6.9012 32.6735 5.4437 35.5885 5.4437 35.5885L6.41537 36.0743C15.6462 
        20.7705 29.9784 23.6855 29.9784 23.6855V22.4709C21.2334 21.4993 15.1604 24.9001 
        11.0308 28.301C10.7879 25.143 12.2454 17.6126 21.4763 16.8838C32.1647 16.6409 
        37.2659 22.9568 37.2659 22.9568C31.6788 31.9447 25.363 33.1593 21.4763 33.6452C17.3467 
        34.3739 12.2454 31.4589 12.2454 31.4589L11.7596 32.4306C11.7596 32.4306 16.1321 35.3456
         21.7192 34.8597C33.8651 33.4022 38.4805 22.7138 38.4805 22.7138C37.2659 20.2847 28.278 
         13.7259 18.3183 16.1551Z" fill="#C6F7FF"/>
     </g>
   </symbol>
</svg>

<svg xmlns="http://www.w3.org/2000/svg" >
   <symbol id="truck" viewBox="0 0 40 32">
      <g>
         <path d="M6.84767 12.6328L9.01168 10.9016H9.22808C9.87729 10.9016 10.3101 10.4688 
         10.3101 9.81963C10.3101 9.38683 10.0937 9.17043 9.87729 8.95403V4.40961H8.79528V8.95403C8.36248 
         9.17043 8.14608 9.38683 8.14608 9.81963V10.036L5.98207 11.7672L6.84767 12.6328Z"/>
         <path d="M39.7406 24.3185V17.3936C39.7406 15.2296 38.875 14.364 38.875 14.364C38.875 
         14.364 36.711 11.5508 35.4126 9.81961C34.1142 8.08841 32.383 8.08841 32.383 
         8.08841H25.0254V7.0064C25.0254 5.49159 23.9434 4.40959 22.4285 4.40959H16.1529C14.6381 
         2.24558 12.0413 0.730774 9.22809 0.730774C4.46727 0.730774 0.788452 4.62599 0.788452 
         9.38681C0.788452 11.3344 1.43765 13.0656 2.51966 14.5804V24.1021C2.51966 25.6169 
         3.60166 26.6989 5.11647 26.6989H6.19848V26.9153C6.19848 29.5121 8.36249 31.6761 
         10.9593 31.6761C13.5561 31.6761 15.7201 29.5121 15.7201 26.9153C15.7201 26.6989 
         15.7201 26.6989 15.7201 26.6989H22.2121H22.4285C23.0777 26.6989 24.5926 26.6989
          26.5402 26.6989V26.9153C26.5402 29.5121 28.7042 31.6761 31.301 31.6761C33.8978 
          31.6761 36.0618 29.5121 36.0618 26.9153C36.0618 26.6989 36.0618 26.6989 36.0618 
          26.6989C36.2782 26.6989 36.4946 26.6989 36.4946 26.6989C40.1734 26.9153 39.7406 
          24.3185 39.7406 24.3185ZM38.6586 16.7444C38.6586 16.7444 38.6586 16.9608 38.6586 
          17.3936H30.219C29.7862 17.3936 29.3534 16.9608 29.3534 16.528V13.0656C29.3534 12.6328
           29.7862 12.2 30.219 12.2H35.8454C36.4946 12.8492 37.1438 13.7148 37.5766 14.364C38.6586 
           15.6624 38.6586 16.7444 38.6586 16.7444ZM9.22809 2.02918C13.3397 2.02918 16.8021 5.27519
            16.8021 9.60321C16.8021 13.9312 13.3397 16.9608 9.22809 16.9608C5.11647 16.9608 1.87046
             13.4984 1.87046 9.38681C1.87046 5.27519 5.11647 2.02918 9.22809 2.02918ZM10.7429 
             30.5941C8.79529 30.5941 7.28048 29.0793 7.28048 27.1317C7.28048 25.1841 8.79529 
             23.6693 10.7429 23.6693C12.6905 23.6693 14.2053 25.1841 14.2053 27.1317C14.2053 
             29.0793 12.6905 30.5941 10.7429 30.5941ZM15.0709 25.6169C14.4217 23.8857 12.6905
              22.3709 10.7429 22.3709C8.79529 22.3709 7.06408 23.6693 6.41488 25.6169H4.90007C4.25087 
              25.6169 3.60166 24.9677 3.60166 24.3185V15.6624C5.11647 16.9608 7.06408 17.8264 9.22809
               17.8264C13.9889 17.8264 17.6677 13.9312 17.6677 9.38681C17.6677 8.08841 17.2349 6.79 
               16.8021 5.708H22.4285C23.0777 5.708 23.7269 6.3572 23.7269 7.0064V24.3185C23.7269 
               24.9677 23.0777 25.6169 22.4285 25.6169H15.0709ZM31.0846 30.5941C29.137 30.5941 
             27.6222 29.0793 27.6222 27.1317C27.6222 25.1841 29.137 23.6693 31.0846 23.6693C33.0322 
            23.6693 34.547 25.1841 34.547 27.1317C34.547 29.0793 33.0322 30.5941 31.0846 30.5941ZM36.4946
             25.8333H35.629C34.9798 23.8857 33.2486 22.5873 31.301 22.5873C29.137 22.5873 27.4058
              23.8857 26.973 25.8333H24.809C25.2418 25.4005 25.4582 24.9677 25.4582 24.3185V8.95401C25.4582 
              8.95401 30.219 8.95401 32.1666 8.95401C34.1142 8.95401 34.9798 10.2524 34.9798 10.2524C34.9798
               10.2524 34.7634 10.6852 35.1962 11.118H30.219C29.137 11.118 28.4878 11.9836 28.4878 
                12.8492V16.3116C28.4878 17.3936 29.3534 18.0428 30.219 18.0428H38.875C38.875 19.7741
                38.875 22.3709 38.875 23.6693C38.6586 26.0497 36.4946 25.8333 36.4946 25.8333Z"/>
      </g>
   </symbol>
</svg>

<svg xmlns="http://www.w3.org/2000/svg">
   <symbol id="measure" viewBox="0 0 41 41">
      <g>
        <path d="M12.5679 9.16711C12.5679 9.65294 13.5396 10.1388 14.9971 10.1388C16.4546 10.1388 17.4263 9.65294 17.4263 9.16711C17.4263 8.68127 16.4546 8.19543 14.9971 8.19543C13.7825 8.19543 12.5679 8.43835 12.5679 9.16711Z"/>
        <path d="M38.8031 18.1551C38.8031 15.7259 36.8597 13.7825 34.4306 13.7825H33.4589H12.0821C12.0821 13.7825 6.25207 14.0254 3.57998 9.41001C3.82289 6.00916 6.49499 3.57998 9.89584 3.57998H19.6126C23.2563 3.57998 25.9284 6.49499 25.9284 9.89584V11.1104H27.143V10.1388C27.143 5.76624 23.7422 2.36539 19.3696 2.36539H10.1388C5.76624 2.36539 2.36539 5.76624 2.36539 10.1388V13.2967V13.7825V21.5559C2.36539 25.9284 5.76624 29.3293 10.1388 29.3293H11.8392V28.1147H9.89584C6.25207 28.1147 3.57998 25.1997 3.57998 21.7988V13.7825V13.2967V11.5963C4.30873 12.5679 6.73791 14.9971 11.8392 14.9971C19.1267 14.9971 33.216 14.9971 33.216 14.9971H34.4306C36.131 14.9971 37.3456 16.2117 37.3456 17.9121V19.3696V19.8555C37.3456 21.5559 36.131 22.7705 34.4306 22.7705H34.1876H18.8838C16.4546 22.7705 14.5113 24.7138 14.5113 27.143V33.7018C14.5113 36.131 16.4546 38.0743 18.8838 38.0743H34.4306C36.8597 38.0743 38.8031 36.131 38.8031 33.7018V27.143C38.8031 27.143 38.8031 21.313 38.8031 19.6126C38.8031 19.6126 38.8031 19.6126 38.8031 19.3696V18.1551ZM37.3456 34.1876C37.3456 35.8881 36.131 37.1027 34.4306 37.1027H18.6409C16.9405 37.1027 15.7259 35.8881 15.7259 34.1876V27.143C15.7259 25.4426 16.9405 24.228 18.6409 24.228H23.2563V28.3576H24.4709V24.228H30.058H32.2443V28.3576H33.4589V24.228H34.4306C35.6451 24.228 36.8597 23.7422 37.5885 23.0134V34.1876H37.3456Z"/>
      </g>
   </symbol>
</svg>


<svg xmlns="http://www.w3.org/2000/svg">
   <symbol id="happy" viewBox="0 0 68 69">
        <path d="M62.03 19.665C62.72 18.975 63.41 18.285 63.755 17.595C66.17 14.49 65.825 13.11 63.41 11.04C60.995 8.97 57.2 12.075 57.2 12.075C57.2 12.075 56.855 12.42 56.51 12.765C52.715 9.315 47.885 6.555 42.365 5.175C40.295 2.07 37.19 0 33.74 0C29.945 0 26.84 2.415 24.77 5.52C20.285 6.9 16.145 9.315 12.695 12.42C12.005 12.075 10.625 10.695 8.9 10.35C6.485 10.005 4.07 11.73 3.725 14.145C3.725 15.525 5.105 17.595 6.83 19.665C3.725 24.495 2 30.015 2 36.225C2 53.82 16.49 68.31 34.43 68.31C40.64 68.31 46.85 66.585 51.68 63.48L50.645 61.065C46.16 49.68 47.195 42.435 47.54 38.985C48.575 35.19 52.37 30.015 54.44 27.255C55.82 25.53 57.89 23.805 59.96 21.735C62.72 25.875 64.1 30.705 64.1 36.225C64.1 44.16 60.65 51.405 55.475 56.925L57.545 58.65C63.41 52.785 66.86 44.85 66.86 36.225C66.86 30.015 65.135 24.495 62.03 19.665ZM33.74 2.76C38.225 2.76 41.675 6.9 41.675 12.075C41.675 17.25 38.225 21.39 33.74 21.39C29.255 21.39 25.805 17.595 25.805 12.075C25.805 6.555 29.255 2.76 33.74 2.76ZM33.74 24.15C39.605 24.15 44.435 18.63 44.435 12.075C44.435 10.695 44.09 9.66 43.745 8.28C47.885 9.66 51.335 11.73 54.44 14.49C51.68 16.905 47.54 20.01 45.47 21.39C42.365 23.805 37.19 26.22 33.05 26.22C28.91 26.22 26.84 24.495 23.735 23.115C20.975 21.735 16.49 16.56 14.42 14.49C17.18 12.075 20.285 10.35 23.39 8.97C23.39 10.005 23.045 11.04 23.045 12.075C23.045 18.975 27.875 24.15 33.74 24.15ZM4.76 36.225C4.76 31.05 6.14 26.22 8.555 21.735C9.245 22.425 9.59 22.77 9.59 22.77C9.59 22.77 18.215 32.775 19.94 35.19C21.665 37.605 19.595 39.33 18.215 45.54C17.18 50.37 17.18 56.925 17.18 60.03C9.59 54.51 4.76 45.885 4.76 36.225ZM58.235 19.665C56.855 21.045 52.025 25.185 47.885 31.74C43.745 38.295 44.435 43.47 44.78 47.265C45.125 51.06 46.16 54.51 46.505 55.89C46.85 56.925 48.23 60.72 48.575 61.755C44.435 63.825 39.605 65.205 34.775 65.205C29.255 65.205 24.425 63.825 19.94 61.41C19.94 49.68 20.63 47.955 20.975 46.23C20.975 44.505 22.01 41.055 23.045 38.295C23.735 35.88 22.7 33.81 21.665 32.775C20.63 31.74 10.625 19.665 8.9 17.25C6.83 14.835 6.485 13.8 8.21 13.11C9.935 12.075 14.42 17.595 16.49 20.01C18.215 22.425 26.15 28.98 33.395 28.635C40.64 28.29 45.815 24.495 47.885 23.115C49.61 21.735 58.58 14.49 59.96 13.455C61.34 12.42 63.065 13.455 62.72 14.49C62.375 15.525 59.615 18.285 58.235 19.665Z"/>
   </symbol>
</svg>

<svg xmlns="http://www.w3.org/2000/svg">
   <symbol id="smiley" viewBox="0 0 68 69">
        <path d="M32 0C14.4314 0 0 14.4314 0 32C0 49.5686 14.4314 64 32 64C49.5686 64 64 49.5686 64 32C64 14.4314 49.5686 0 32 0ZM32 61.4902C15.6863 61.4902 2.5098 48.3137 2.5098 32C2.5098 15.6863 15.6863 2.5098 32 2.5098C48.3137 2.5098 61.4902 15.6863 61.4902 32C61.4902 48.3137 48.3137 61.4902 32 61.4902Z" fill="#292929"/>
        <path d="M32 48.6275C21.0196 48.6275 14.4314 38.902 14.4314 38.902L12.2353 40.4706C21.0196 51.7647 32 51.451 32 51.451C32 51.451 42.9804 52.0785 51.7647 40.4706L49.5686 38.902C49.5686 38.902 42.9804 48.6275 32 48.6275Z" fill="#292929"/>
        <path d="M21.3333 35.451C28.8627 32 30.1176 27.6078 30.1176 25.4118C30.1176 22.902 28.549 20.0784 25.7255 20.0784C22.5882 20.0784 21.3333 21.6471 21.3333 21.6471C21.3333 21.6471 20.0784 20.0784 16.9412 20.0784C14.1176 20.0784 12.549 23.2157 12.549 25.4118C12.549 27.6078 13.8039 32 21.3333 35.451ZM21.3333 24.7843C22.902 22.2745 27.2941 21.9608 27.6078 25.098C27.6078 29.4902 21.3333 32.6275 21.3333 32.6275C21.3333 32.6275 15.0588 29.4902 15.0588 25.098C15.3725 21.9608 19.7647 22.2745 21.3333 24.7843Z"/>
        <path d="M42.6667 35.451C50.1961 32 51.451 27.6078 51.451 25.7255C51.451 23.2157 49.8824 20.3922 47.0588 20.3922C43.9216 20.3922 42.6667 21.9608 42.6667 21.9608C42.6667 21.9608 41.4118 20.3922 38.2745 20.3922C35.451 20.3922 33.8824 23.5294 33.8824 25.7255C33.8824 27.6078 35.1373 32 42.6667 35.451ZM42.6667 24.7843C44.2353 22.2745 48.6274 21.9608 48.9412 25.098C48.9412 29.4902 42.6667 32.6274 42.6667 32.6274C42.6667 32.6274 36.3922 29.4902 36.3922 25.098C36.7059 21.9608 41.098 22.2745 42.6667 24.7843Z"/>
   </symbol>
</svg>

<svg xmlns="http://www.w3.org/2000/svg">
   <symbol id="muscle" viewBox="0 0 64 64">
        <path d="M62.03 19.665C62.72 18.975 63.41 18.285 63.755 17.595C66.17 14.49 65.825 13.11 63.41 11.04C60.995 8.97 57.2 12.075 57.2 12.075C57.2 12.075 56.855 12.42 56.51 12.765C52.715 9.315 47.885 6.555 42.365 5.175C40.295 2.07 37.19 0 33.74 0C29.945 0 26.84 2.415 24.77 5.52C20.285 6.9 16.145 9.315 12.695 12.42C12.005 12.075 10.625 10.695 8.9 10.35C6.485 10.005 4.07 11.73 3.725 14.145C3.725 15.525 5.105 17.595 6.83 19.665C3.725 24.495 2 30.015 2 36.225C2 53.82 16.49 68.31 34.43 68.31C40.64 68.31 46.85 66.585 51.68 63.48L50.645 61.065C46.16 49.68 47.195 42.435 47.54 38.985C48.575 35.19 52.37 30.015 54.44 27.255C55.82 25.53 57.89 23.805 59.96 21.735C62.72 25.875 64.1 30.705 64.1 36.225C64.1 44.16 60.65 51.405 55.475 56.925L57.545 58.65C63.41 52.785 66.86 44.85 66.86 36.225C66.86 30.015 65.135 24.495 62.03 19.665ZM33.74 2.76C38.225 2.76 41.675 6.9 41.675 12.075C41.675 17.25 38.225 21.39 33.74 21.39C29.255 21.39 25.805 17.595 25.805 12.075C25.805 6.555 29.255 2.76 33.74 2.76ZM33.74 24.15C39.605 24.15 44.435 18.63 44.435 12.075C44.435 10.695 44.09 9.66 43.745 8.28C47.885 9.66 51.335 11.73 54.44 14.49C51.68 16.905 47.54 20.01 45.47 21.39C42.365 23.805 37.19 26.22 33.05 26.22C28.91 26.22 26.84 24.495 23.735 23.115C20.975 21.735 16.49 16.56 14.42 14.49C17.18 12.075 20.285 10.35 23.39 8.97C23.39 10.005 23.045 11.04 23.045 12.075C23.045 18.975 27.875 24.15 33.74 24.15ZM4.76 36.225C4.76 31.05 6.14 26.22 8.555 21.735C9.245 22.425 9.59 22.77 9.59 22.77C9.59 22.77 18.215 32.775 19.94 35.19C21.665 37.605 19.595 39.33 18.215 45.54C17.18 50.37 17.18 56.925 17.18 60.03C9.59 54.51 4.76 45.885 4.76 36.225ZM58.235 19.665C56.855 21.045 52.025 25.185 47.885 31.74C43.745 38.295 44.435 43.47 44.78 47.265C45.125 51.06 46.16 54.51 46.505 55.89C46.85 56.925 48.23 60.72 48.575 61.755C44.435 63.825 39.605 65.205 34.775 65.205C29.255 65.205 24.425 63.825 19.94 61.41C19.94 49.68 20.63 47.955 20.975 46.23C20.975 44.505 22.01 41.055 23.045 38.295C23.735 35.88 22.7 33.81 21.665 32.775C20.63 31.74 10.625 19.665 8.9 17.25C6.83 14.835 6.485 13.8 8.21 13.11C9.935 12.075 14.42 17.595 16.49 20.01C18.215 22.425 26.15 28.98 33.395 28.635C40.64 28.29 45.815 24.495 47.885 23.115C49.61 21.735 58.58 14.49 59.96 13.455C61.34 12.42 63.065 13.455 62.72 14.49C62.375 15.525 59.615 18.285 58.235 19.665Z"/>
   </symbol>
</svg>


